HIERARCHY
ROOT hip
{
  OFFSET 0 0 0
  CHANNELS 6 Xposition Yposition Zposition Zrotation Yrotation Xrotation
  JOINT abdomen
  {
    OFFSET 0 20.6881 -0.73152
    CHANNELS 3 Zrotation Xrotation Yrotation
    JOINT chest
    {
      OFFSET 0 11.7043 -0.48768
      CHANNELS 3 Zrotation Xrotation Yrotation
      JOINT neck
      {
        OFFSET 0 22.1894 -2.19456
        CHANNELS 3 Zrotation Xrotation Yrotation
        JOINT head
        {
          OFFSET -0.24384 7.07133 1.2192
          CHANNELS 3 Zrotation Xrotation Yrotation
          JOINT leftEye
          {
            OFFSET 4.14528 8.04674 8.04672
            CHANNELS 3 Zrotation Xrotation Yrotation
            End Site
            {
              OFFSET 1 0 0
            }
          }
          JOINT rightEye
          {
            OFFSET -3.6576 8.04674 8.04672
            CHANNELS 3 Zrotation Xrotation Yrotation
            End Site
            {
              OFFSET 1 0 0
            }
          }
        }
      }
      JOINT rCollar
      {
        OFFSET -2.68224 19.2634 -4.8768
        CHANNELS 3 Zrotation Xrotation Yrotation
        JOINT rShldr
        {
          OFFSET -8.77824 -1.95073 1.46304
          CHANNELS 3 Zrotation Xrotation Yrotation
          JOINT rForeArm
          {
            OFFSET -28.1742 -1.7115 0.48768
            CHANNELS 3 Zrotation Xrotation Yrotation
            JOINT rHand
            {
              OFFSET -22.5879 0.773209 7.07136
              CHANNELS 3 Zrotation Xrotation Yrotation
              JOINT rThumb1
              {
                OFFSET -1.2192 -0.487915 3.41376
                CHANNELS 3 Zrotation Xrotation Yrotation
                JOINT rThumb2
                {
                  OFFSET -3.37035 -0.52449 3.41376
                  CHANNELS 3 Zrotation Xrotation Yrotation
                  End Site
                  {
                    OFFSET -1.78271 -1.18214 1.43049
                  }
                }
              }
              JOINT rIndex1
              {
                OFFSET -7.75947 0.938293 5.60832
                CHANNELS 3 Zrotation Xrotation Yrotation
                JOINT rIndex2
                {
                  OFFSET -2.54057 -0.884171 1.56538
                  CHANNELS 3 Zrotation Xrotation Yrotation
                  End Site
                  {
                    OFFSET -1.62519 -0.234802 1.16502
                  }
                }
              }
              JOINT rMid1
              {
                OFFSET -8.24714 1.18213 3.41376
                CHANNELS 3 Zrotation Xrotation Yrotation
                JOINT rMid2
                {
                  OFFSET -3.10165 -0.590103 1.0647
                  CHANNELS 3 Zrotation Xrotation Yrotation
                  End Site
                  {
                    OFFSET -2.48547 -0.328903 0.83742
                  }
                }
              }
              JOINT rRing1
              {
                OFFSET -8.82822 0.546677 1.51678
                CHANNELS 3 Zrotation Xrotation Yrotation
                JOINT rRing2
                {
                  OFFSET -2.60934 -0.819778 -0.0198488
                  CHANNELS 3 Zrotation Xrotation Yrotation
                  End Site
                  {
                    OFFSET -2.33842 -0.294052 0.168128
                  }
                }
              }
              JOINT rPinky1
              {
                OFFSET -8.27202 -0.0477905 -0.4584
                CHANNELS 3 Zrotation Xrotation Yrotation
                JOINT rPinky2
                {
                  OFFSET -1.82734 -0.647385 -0.700984
                  CHANNELS 3 Zrotation Xrotation Yrotation
                  End Site
                  {
                    OFFSET -1.69225 -0.51767 -0.607171
                  }
                }
              }
            }
          }
        }
      }
      JOINT lCollar
      {
        OFFSET 2.68224 19.2634 -4.8768
        CHANNELS 3 Zrotation Xrotation Yrotation
        JOINT lShldr
        {
          OFFSET 8.77824 -1.95073 1.46304
          CHANNELS 3 Zrotation Xrotation Yrotation
          JOINT lForeArm
          {
            OFFSET 28.1742 -1.7115 0.48768
            CHANNELS 3 Zrotation Xrotation Yrotation
            JOINT lHand
            {
              OFFSET 22.5879 0.773209 7.07136
              CHANNELS 3 Zrotation Xrotation Yrotation
              JOINT lThumb1
              {
                OFFSET 1.2192 -0.487915 3.41376
                CHANNELS 3 Zrotation Xrotation Yrotation
                JOINT lThumb2
                {
                  OFFSET 3.37035 -0.52449 3.41376
                  CHANNELS 3 Zrotation Xrotation Yrotation
                  End Site
                  {
                    OFFSET 1.78271 -1.18214 1.43049
                  }
                }
              }
              JOINT lIndex1
              {
                OFFSET 7.75947 0.938293 5.60832
                CHANNELS 3 Zrotation Xrotation Yrotation
                JOINT lIndex2
                {
                  OFFSET 2.54057 -0.884171 1.56538
                  CHANNELS 3 Zrotation Xrotation Yrotation
                  End Site
                  {
                    OFFSET 1.62519 -0.234802 1.16502
                  }
                }
              }
              JOINT lMid1
              {
                OFFSET 8.24714 1.18213 3.41376
                CHANNELS 3 Zrotation Xrotation Yrotation
                JOINT lMid2
                {
                  OFFSET 3.10165 -0.590103 1.0647
                  CHANNELS 3 Zrotation Xrotation Yrotation
                  End Site
                  {
                    OFFSET 2.48547 -0.328903 0.83742
                  }
                }
              }
              JOINT lRing1
              {
                OFFSET 8.82822 0.546677 1.51678
                CHANNELS 3 Zrotation Xrotation Yrotation
                JOINT lRing2
                {
                  OFFSET 2.60934 -0.819778 -0.0198488
                  CHANNELS 3 Zrotation Xrotation Yrotation
                  End Site
                  {
                    OFFSET 2.33842 -0.294052 0.168128
                  }
                }
              }
              JOINT lPinky1
              {
                OFFSET 8.27202 -0.0477905 -0.4584
                CHANNELS 3 Zrotation Xrotation Yrotation
                JOINT lPinky2
                {
                  OFFSET 1.82734 -0.647385 -0.700984
                  CHANNELS 3 Zrotation Xrotation Yrotation
                  End Site
                  {
                    OFFSET 1.69225 -0.51767 -0.607171
                  }
                }
              }
            }
          }
        }
      }
    }
  }
  JOINT rButtock
  {
    OFFSET -8.77824 4.35084 1.2192
    CHANNELS 3 Zrotation Xrotation Yrotation
    JOINT rThigh
    {
      OFFSET 0 -1.70687 -2.19456
      CHANNELS 3 Zrotation Xrotation Yrotation
      JOINT rShin
      {
        OFFSET 0 -36.8199 0.73152
        CHANNELS 3 Zrotation Xrotation Yrotation
        JOINT rFoot
        {
          OFFSET 0.73152 -45.1104 -5.12064
          CHANNELS 3 Zrotation Xrotation Yrotation
          End Site
          {
            OFFSET -1.1221 -3.69964 12.103
          }
        }
      }
    }
  }
  JOINT lButtock
  {
    OFFSET 8.77824 4.35084 1.2192
    CHANNELS 3 Zrotation Xrotation Yrotation
    JOINT lThigh
    {
      OFFSET 0 -1.70687 -2.19456
      CHANNELS 3 Zrotation Xrotation Yrotation
      JOINT lShin
      {
        OFFSET 0 -36.8199 0.73152
        CHANNELS 3 Zrotation Xrotation Yrotation
        JOINT lFoot
        {
          OFFSET -0.73152 -45.1104 -5.12064
          CHANNELS 3 Zrotation Xrotation Yrotation
          End Site
          {
            OFFSET 1.1221 -3.69964 12.103
          }
        }
      }
    }
  }
}
MOTION
Frames:	4
Frame Time:	0.03333
0.20818812772631645 61.66350841522217 0.0021910294890403748 -7.243285841204292 6.07747414894702 2.1337427724189326 -2.513465858665322 15.390402077539909 4.095638412207167 2.7043997414882086 -10.07036517169604 1.2311096881047696 -4.954423709762258 15.34898893305483 -3.0927248106639946 8.663646730996893 -25.252278286142246 -4.617493893100114 0.093579301240434 -0.060361156459753 0.00709025662678892 -0.036078980186711414 -0.05786082697585231 -0.010304394239808827 0.11575484440220266 -0.04097299749001067 0.031754723390152874 46.00755319255893 29.03499414284622 15.754391396146351 -24.248488072507786 -30.55434581805346 66.3882639399867 -5.120340957532915 -11.071588087976222 -5.755736380546276 0.06452618447128562 0.005408335883886503 0.11455998818427356 0.06377497038429 -0.014926658059548842 0.01814354375649262 -0.036428813938263006 0.030880032289568118 0.07552444322144576 7.671063150243129 5.471822492221771 0.4634682491033274 0.038845633687389705 -0.029497559312875225 -0.04082894986763216 2.848175863847212 1.0050342685587559 0.1564920803039289 -0.05706505657669294 0.058164290146241866 0.05214177084558312 10.090799390145424 0.7399698880744877 0.04446247710394672 -0.026252205600914243 0.03057608887150255 0.10056187566608943 2.2975830023516712 -0.6811891199947993 -0.13486277885298933 0.09025422641425428 0.08282895701280416 -0.017379149538832992 -54.790609559494214 31.547209436563193 -23.640152151438723 23.473239403596537 -28.767315614178834 -63.067945059903415 5.58199515108137 -14.976286000614744 5.060032521595819 -0.1036935307407535 0.11625142049920374 -0.010500135188425228 -0.08225564800934622 -0.014365328567564865 0.019264121667197837 -0.004899486790720553 0.04069530761156734 0.08811248186177927 -7.799224819829249 5.4396651078357054 -0.3719121512806717 -0.0925690735735068 -0.06225632051101997 -0.009553807142834672 -2.838333774696635 0.9135629878117699 -0.07531963092783793 0.016436156546548106 0.06195312414489488 -0.07944550541356199 -10.238896674371519 0.749053345979517 0.11868990475460407 -0.13187486457579967 -0.03072176399989423 -0.057894924560849485 -2.1635616707879155 -0.7635020241992972 0.3059421021714424 -0.06031179767082908 0.005767347702135298 -0.0425871099291022 -31.194252581013615 -36.32359487409896 -29.17501985102065 -6.55409712894838 62.14822593721535 7.422448533322896 -4.886448386481821 -10.244812471966396 -10.097284654762351 -0.021134953169546642 0.01840878054589258 -0.01339880343915517 36.16100563600139 -34.16452768122833 31.563195494315607 6.667891495615377 63.209473409695256 -7.887200217659951 5.191908533429955 -10.353688248657338 13.332942486309676
0.09278059005737305 63.95078897476196 -0.0038570724427700043 -5.012504223369461 4.7194489806145405 4.130741315672801 -2.6878920280379344 14.366616485110235 3.199005969243978 2.8718546355957653 -9.229219691446152 0.9463355161099605 -5.096530064312605 15.371460255424171 -4.46009773320587 8.80893253860588 -25.117824304783255 -6.422202334094026 0.06358137721000245 -0.11878125853475299 0.05609334210533962 0.2292840076303332 0.02053218897529302 -0.01418797043276932 0.06284526424437491 -0.0652663795421593 0.08651821965996308 52.441724579399754 30.44887745198471 15.833911873558225 -23.679328408970623 -28.091114933516526 65.27193782203982 -4.057198961331982 -9.630561607076102 -4.230404874720689 -0.08912831241825998 0.08432492852359563 0.007949166255131247 0.07334113056456887 0.06125663161253869 0.1496251121660612 0.027848815680257613 -0.029286143613722174 -0.05382792043607713 7.733129933004681 5.310497266007478 0.4796560108796692 -0.022867793506320035 -0.0587161214064113 -0.07213221376190306 2.7507361717043985 0.8117552829730275 0.09649038922967426 -0.06108462290324544 -0.010239307339495365 -0.060341519665889215 10.311537443741896 0.7115534196411786 0.06308856305313015 0.13420102423586502 -0.16645032269103557 0.015742692242593472 2.171585435515388 -0.8412027898058911 -0.20876131688685473 0.07708567505532259 0.0099215434605311 0.008078086075715236 -62.23642416996773 33.19072029050293 -26.183729966277102 22.772701051374177 -26.518902716775262 -62.19313443100818 4.7403873524020375 -11.942551612821445 3.459830403079255 -0.035426270234152075 -0.03999283866368739 -0.061666362921460126 0.011571300949353634 -0.024096000257305843 -0.054050168388367 0.006703083618427045 -0.017159329505349652 0.06110772815254713 -7.635725459024776 5.3526980166812255 -0.4593687482191446 -0.037718812556896276 -0.09886960291772622 -0.04296581190206767 -2.9609085629850953 0.9463395715347801 -0.20968385933226924 -0.17106320834088004 0.11075578625998801 -0.07140535890425205 -10.198589166758333 0.7894215782432907 -0.058312526595572296 0.028597922013564054 -0.13813278527898584 0.04522919251870709 -2.0901049072551325 -0.6657852825082751 0.10949508274959176 0.004153875593278458 0.06676782054037207 0.016365853622864576 -32.89232298604341 -35.892879729943374 -27.237481306142914 -4.599651304553925 62.74175571571112 6.116600887607437 -4.562428054237825 -9.64324185327023 -10.597309143520645 0.060644502588602746 0.14484189867378955 0.19384621145195674 37.662335857083555 -32.94126812163572 29.76986785602623 4.0758919084298375 63.090354910570234 -5.39815975579683 5.206553739670932 -10.054692448871798 15.364022179418027
0.5831059999763966 58.39811563491821 1.3258622959256172 -11.261469908223514 -24.638519194872195 18.557458342837272 12.923186631395916 9.804427487493362 4.447392727576001 2.0056961488316456 -7.299149958425827 1.010990193515007 -2.642697520073606 13.110641173166917 2.387703719911993 7.260923097188558 -22.371398409331956 6.307001802231651 -0.023247776139754886 -0.0837376923375332 0.22525270191614474 0.3283998708841501 -0.10907273159896166 -0.24422189814941553 0.8177365009735488 0.16114190500418696 0.06191940008586794 102.23108179840847 48.24689901383931 -49.99832002647607 -26.374929159260564 -38.680197967955536 81.71881477737708 -7.49113633071113 -43.311042319562084 -11.853339096977324 0.0645349356511597 -0.172382181902633 0.5299681448013351 0.19923352315980428 -0.09525384484542428 0.12957743973501595 0.11340269800677952 0.009932268991962137 -0.06365778995134197 7.640167643306223 5.044943779945614 0.6081014534814614 0.40112505712380137 -0.3987763791838161 0.0025689782211446004 3.0031833785226545 1.0334005777903477 0.04998395133617478 0.00010053184684612518 -0.0682553076755539 0.24923157510135543 10.200803001823065 0.6103881794712405 0.20193104767556264 0.2836279808747165 -0.21638946425099537 0.18778296448032913 2.2096054700868524 -0.9112903490871539 -0.327340764675975 -0.2416201296841696 -0.11387558188509712 0.11338978468037997 -53.33948464390623 13.459855938824974 -45.73833104113912 15.456113619997309 -9.98999177441156 -29.793186121852656 3.4093183794026602 30.218689831671526 -7.6746182637061215 0.1826954473842349 -0.1669507941302977 -0.4820497787403471 -0.3983482650610738 -0.3899697040227309 -0.1345213227553416 0.14625526758430615 0.24756466209832853 -0.3722039551047046 -7.760949293494144 5.430709449173349 -0.5138438290790804 -0.10299642455858908 -0.34958135471741747 0.36127744002125606 -2.6160010853723765 0.9289791516553118 -0.08917456293750302 -0.5558818291515106 0.11874913530131279 0.27325081577177796 -10.069496030124155 0.9698727748766475 0.053816447852705625 -0.31359418187810456 0.09245194650141166 0.23871009557177392 -2.1840229965505698 -0.8624249346090612 0.44248067860946494 -0.1652214222489622 0.07482189423228648 -0.20535179851097543 -5.471053242166499 6.602242705520977 -0.9861273444408084 3.0741620640471923 37.69650729350113 -0.7592490575022007 -10.088014380511352 -19.385774166504934 -30.448249074581067 0.1414478282648221 -0.0483968061381129 -0.1387537988849281 81.58882944728256 -55.75055849639366 70.40912117229233 8.957817855907464 76.25717012079227 -8.082448005273937 -0.9943411805262777 -0.6053510750409147 -3.406532089108118
0.36573242396116257 54.64057922363281 2.75149866938591 -15.174434911078691 -22.840524829832404 19.191224765733583 14.580585821239225 5.77847151897231 2.55831074632151 3.1202434293865644 -5.977380287981421 1.49616617118281 -2.6322776396079286 13.963275031600764 -1.0820242676048453 8.083035401542558 -23.50560767007323 1.7198309608386326 0.3572514970727831 -0.40352693583411864 -0.15474051030779085 -0.5482935423444794 -0.23075404576661976 -0.2611651428809842 0.12644601144397669 -0.11399711122755575 -0.36631670556612383 109.03970806121148 41.92860178626775 -55.118434733992736 -27.21447381392373 -41.32364510129055 86.0681426370578 -2.0062060651418694 -43.57567116876506 -6.648118524855014 -0.4792347803069498 0.4334322254239319 0.10923030619754798 0.06573640861484725 -0.4880221388392886 0.2221002494490665 -0.024277053631164072 0.24284043902892757 -0.2055071052733139 8.238599790078768 4.90479897034753 0.6036463558736147 0.3087021389263622 -0.26640021607553455 -0.4867863014863394 2.8811949192857575 1.022430013322838 0.09804468415267528 0.26636542479944975 0.06443461724772513 0.11202673505413929 9.781132273555386 0.9095547339860302 0.4037277594039729 -0.011791841354350997 -0.7081537997035104 1.3191803884187356 2.765658854380407 -1.2135284610160395 -0.09699669034211467 -0.2566104739216435 0.2638518618240322 -0.19302274677014705 -49.467908026100396 22.50554673972559 -40.198815397827 14.428549225409325 -9.332598873402526 -25.242499162798083 1.743987739107381 29.81505297248045 -3.9064327806877053 0.42449983209343617 -0.11405914321904122 -0.09860786793429721 -0.28536935894795246 0.18759930976489247 -0.25366239352113673 0.8127809852872929 -0.3262785902187587 0.6518554852220043 -7.33759880081112 5.273269746823147 -0.7749527829819707 -0.5575817992029033 0.33837867053983295 -0.2892479192207412 -2.9198222003631185 1.239707295444229 -0.19020149177674833 -0.24559674052414507 -0.39603368470608574 0.3753211627284485 -10.252245425330662 0.7565344841939438 -0.11170240779026946 0.26548499740717924 -0.2628501185327146 0.12071452223498395 -1.8386553349425212 -0.620729939648286 0.30270694038238355 0.13330730999122473 0.015740757911676184 0.2041076902258282 -10.26529706306091 14.977822793177996 -2.4548429853493374 0.3704048405886409 28.630966255325163 3.333235621577419 -9.52421385415171 -17.278321005644795 -32.00714071489351 0.5361091251954113 0.08569917725883673 -0.12643107040516727 83.00937219086181 -53.747455258125676 73.8535992311081 4.33492811336304 80.47900566942553 -3.5378689428846473 -0.35292633314172545 -5.200060791091189 -6.322630982599933
